<svg width="128" height="128" viewBox="0 0 128 128" xmlns="http://www.w3.org/2000/svg">
  <defs>
    <linearGradient id="gradient" x1="0%" y1="0%" x2="100%" y2="100%">
      <stop offset="0%" style="stop-color:#667eea;stop-opacity:1" />
      <stop offset="100%" style="stop-color:#764ba2;stop-opacity:1" />
    </linearGradient>
    <filter id="shadow" x="-20%" y="-20%" width="140%" height="140%">
      <feDropShadow dx="2" dy="2" stdDeviation="3" flood-color="#000000" flood-opacity="0.3"/>
    </filter>
  </defs>
  
  <!-- 背景圆形 -->
  <circle cx="64" cy="64" r="56" fill="url(#gradient)" filter="url(#shadow)"/>
  
  <!-- AI脑部图标 -->
  <g transform="translate(35, 25)">
    <!-- 脑部轮廓 -->
    <path d="M20 15 C30 10, 45 10, 50 20 C55 25, 55 35, 50 40 C45 45, 30 45, 20 40 C15 35, 15 25, 20 15 Z" 
          fill="white" opacity="0.9"/>
    <!-- 神经网络线条 -->
    <line x1="25" y1="20" x2="35" y2="25" stroke="#667eea" stroke-width="2" opacity="0.8"/>
    <line x1="30" y1="25" x2="40" y2="30" stroke="#667eea" stroke-width="2" opacity="0.8"/>
    <line x1="25" y1="30" x2="35" y2="35" stroke="#667eea" stroke-width="2" opacity="0.8"/>
    <!-- 节点 -->
    <circle cx="25" cy="20" r="2" fill="#764ba2"/>
    <circle cx="35" cy="25" r="2" fill="#764ba2"/>
    <circle cx="30" cy="25" r="2" fill="#764ba2"/>
    <circle cx="40" cy="30" r="2" fill="#764ba2"/>
    <circle cx="25" cy="30" r="2" fill="#764ba2"/>
    <circle cx="35" cy="35" r="2" fill="#764ba2"/>
  </g>
  
  <!-- 图片框架图标 -->
  <g transform="translate(20, 55)">
    <rect x="0" y="0" width="35" height="25" rx="3" fill="white" opacity="0.9"/>
    <rect x="3" y="3" width="29" height="19" rx="2" fill="#f0f8ff"/>
    <!-- 山形图标表示图片 -->
    <polygon points="8,18 15,10 22,15 30,8 30,19 8,19" fill="#667eea" opacity="0.7"/>
    <circle cx="12" cy="8" r="2" fill="#764ba2" opacity="0.7"/>
  </g>
  
  <!-- 优化箭头 -->
  <g transform="translate(55, 60)">
    <path d="M0 8 L12 8 L8 4 M12 8 L8 12" stroke="white" stroke-width="3" fill="none" stroke-linecap="round"/>
  </g>
  
  <!-- 优化后的图片 -->
  <g transform="translate(73, 55)">
    <rect x="0" y="0" width="35" height="25" rx="3" fill="white" opacity="0.95"/>
    <rect x="3" y="3" width="29" height="19" rx="2" fill="#f0f8ff"/>
    <!-- 更清晰的山形图标 -->
    <polygon points="8,18 15,8 22,12 30,6 30,19 8,19" fill="#667eea"/>
    <circle cx="12" cy="8" r="2" fill="#764ba2"/>
    <!-- 质量提升星标 -->
    <polygon points="26,6 27,8 29,8 27.5,9.5 28,12 26,10.5 24,12 24.5,9.5 23,8 25,8" fill="#ffd700"/>
  </g>
  
  <!-- 底部文字提示 -->
  <text x="64" y="100" text-anchor="middle" font-family="Arial, sans-serif" font-size="10" fill="white" opacity="0.8">AI优化</text>
</svg>